<?xml version="1.0" encoding="utf-8"?>
<svg version="1.0" width="1024.000000pt" height="1024.000000pt" viewBox="0 0 1024.000000 1024.000000" preserveAspectRatio="xMidYMid meet" xmlns="http://www.w3.org/2000/svg">
  <g transform="translate(0.000000,1024.000000) scale(0.100000,-0.100000)" fill="#000000" stroke="none">
    <path d="M5345 6420 c-27 -5 -113 -16 -190 -25 -138 -16 -165 -20 -295 -47 l-65 -14 3 -109 c1 -61 7 -137 12 -170 5 -33 10 -79 10 -103 0 -51 46 -242 61 -257 13 -11 11 0 -16 145 -9 48 -19 166 -22 272 l-6 187 59 16 c33 9 65 18 72 20 26 9 340 44 412 47 l75 3 7 -80 c4 -44 13 -127 19 -185 16 -141 22 -247 15 -275 -4 -17 -21 -27 -70 -44 -75 -25 -172 -47 -271 -62 -72 -11 -170 -40 -215 -64 l-25 -14 25 -1 c14 0 41 5 60 11 134 41 283 72 473 99 32 4 60 10 63 12 5 6 -22 293 -47 486 -10 84 -19 155 -19 157 0 7 -66 4 -125 -5z"/>
    <path d="M5604 6110 c3 -18 6 -43 6 -57 0 -13 4 -22 9 -19 18 12 351 -35 636 -90 39 -7 115 -22 170 -32 97 -18 208 -50 270 -77 17 -7 48 -18 70 -25 22 -7 76 -30 120 -51 170 -80 287 -190 299 -278 3 -27 4 -57 0 -67 -48 -144 -211 -268 -439 -333 -60 -18 -126 -39 -145 -48 -19 -8 -55 -19 -80 -24 -25 -4 -108 -22 -185 -38 -486 -103 -1095 -140 -1640 -100 -155 11 -481 51 -602 73 -43 8 -121 22 -174 30 -53 9 -172 41 -265 71 -92 30 -179 55 -191 55 -13 0 -66 22 -119 50 -73 38 -112 66 -164 120 -78 80 -94 117 -88 199 3 43 11 66 37 101 18 25 43 51 57 58 13 7 24 16 24 21 0 23 150 107 273 153 191 72 209 77 602 151 206 39 331 57 489 69 l148 11 -6 30 c-3 16 -6 37 -6 46 0 14 -12 16 -87 13 -215 -6 -638 -59 -803 -101 -136 -34 -235 -63 -260 -76 -14 -7 -61 -25 -105 -40 -88 -30 -182 -76 -213 -105 -10 -10 -38 -28 -60 -39 -57 -29 -101 -78 -140 -154 -61 -119 -53 -224 26 -342 22 -33 38 -62 36 -64 -2 -2 -24 9 -50 24 -26 15 -101 47 -168 71 -66 23 -154 55 -194 70 -40 15 -74 25 -75 23 -2 -2 -20 -42 -40 -89 -28 -64 -42 -118 -57 -218 -30 -195 -16 -319 38 -342 15 -6 43 -19 62 -30 19 -11 76 -33 125 -49 176 -59 341 -119 405 -148 36 -17 80 -36 98 -43 18 -7 37 -20 41 -29 5 -9 9 -228 10 -486 0 -441 6 -687 18 -745 3 -14 9 -50 13 -80 5 -30 16 -75 25 -100 9 -25 22 -65 29 -90 17 -64 134 -236 213 -315 39 -38 94 -80 128 -97 33 -17 67 -36 75 -43 24 -21 200 -89 260 -101 14 -3 33 -7 42 -10 19 -6 35 34 24 61 -3 8 -1 15 4 15 6 0 10 4 10 9 0 8 -13 12 -90 26 -111 20 -197 57 -291 124 -157 112 -228 202 -296 376 -44 112 -64 194 -74 310 -5 55 -11 408 -14 785 -3 377 -7 729 -10 782 -3 65 -1 98 7 100 15 5 116 -16 158 -34 19 -8 89 -27 155 -42 66 -15 156 -36 200 -46 151 -36 237 -50 495 -81 47 -6 99 -12 115 -14 77 -10 483 -24 688 -25 243 0 715 24 757 40 14 5 59 12 101 15 105 9 119 11 164 23 22 6 72 16 110 22 39 6 90 17 115 25 84 26 165 47 232 60 37 7 74 20 83 29 10 9 31 16 48 15 18 0 54 2 81 7 45 6 49 5 43 -10 -4 -10 -9 -59 -12 -109 -2 -51 -6 -130 -9 -177 -3 -47 -8 -218 -11 -380 -12 -647 -33 -1078 -56 -1180 -16 -68 -59 -168 -101 -236 -21 -34 -38 -66 -38 -72 0 -5 -45 -52 -100 -104 -75 -71 -120 -104 -178 -132 -79 -38 -108 -53 -222 -111 -36 -19 -78 -35 -95 -37 -29 -3 -29 -3 -73 127 -24 72 -53 181 -65 242 -12 62 -25 113 -28 113 -3 0 -11 -26 -18 -57 -7 -32 -20 -94 -31 -138 -25 -110 -48 -247 -55 -325 -4 -36 -12 -96 -20 -135 -8 -38 -19 -117 -25 -175 -18 -169 -45 -306 -105 -525 -51 -185 -49 -167 -26 -242 24 -81 83 -149 138 -159 55 -10 144 5 178 32 18 13 35 24 40 24 25 0 116 129 151 215 70 170 83 354 38 548 -29 127 -66 256 -87 307 -8 19 -18 54 -22 78 l-7 42 36 0 c66 0 215 39 281 75 160 85 205 116 279 198 68 73 110 131 161 221 9 15 23 51 31 80 30 107 52 192 57 223 3 17 7 35 10 40 3 4 10 269 17 588 6 319 13 594 16 611 4 28 10 33 42 39 20 3 51 14 67 24 17 10 44 21 60 25 17 4 62 23 100 41 79 38 174 75 193 75 12 0 59 19 147 60 22 10 61 26 86 35 87 30 104 72 104 260 0 166 -10 232 -47 310 -44 92 -42 90 -79 89 -19 0 -50 -8 -69 -17 -38 -17 -153 -55 -185 -60 -11 -2 -32 -9 -46 -15 -15 -6 -45 -16 -68 -22 -35 -9 -43 -16 -48 -41 -6 -31 -28 -49 -62 -49 -21 0 -21 0 -1 20 23 23 49 74 80 158 18 51 22 76 18 135 -7 104 -49 181 -137 251 -65 51 -145 106 -156 106 -3 0 -27 11 -54 24 -27 13 -62 26 -78 30 -15 4 -66 22 -113 40 -131 52 -175 65 -315 96 -232 50 -480 86 -724 105 l-84 7 7 -32z m2123 -1055 c4 -38 0 -72 -9 -94 -14 -35 -20 -38 -153 -81 -38 -13 -106 -37 -150 -55 -44 -18 -125 -47 -180 -65 -55 -18 -104 -36 -109 -41 -6 -5 -17 -9 -25 -9 -9 0 -29 -7 -45 -15 -35 -18 -62 -19 -66 -2 -1 6 -3 68 -4 137 l-1 125 60 17 c75 21 161 51 243 84 35 14 96 34 135 44 40 10 115 34 167 53 l95 34 19 -35 c10 -20 21 -63 23 -97z m-5079 102 c6 -5 12 -7 12 -4 0 3 39 -8 87 -24 47 -16 92 -29 99 -29 15 0 139 -37 169 -51 11 -5 43 -15 70 -23 140 -38 211 -59 217 -65 4 -3 1 -19 -7 -34 -8 -15 -14 -51 -14 -80 1 -29 -2 -74 -6 -100 -7 -45 -9 -48 -34 -44 -39 7 -175 48 -186 57 -5 5 -28 11 -50 15 -22 4 -60 16 -85 27 -42 20 -73 30 -195 64 -27 8 -78 27 -112 44 l-63 30 0 73 c0 41 3 77 7 81 4 3 8 14 9 23 9 56 14 63 42 57 15 -4 33 -11 40 -17z m887 -151 c28 -9 72 -21 98 -28 27 -7 47 -17 45 -23 -4 -13 -20 -11 -98 15 -101 34 -120 42 -120 52 0 5 6 7 13 5 6 -3 35 -13 62 -21z m210 -56 l20 -9 -20 0 c-11 0 -27 4 -35 9 -13 9 -13 10 0 9 8 0 24 -4 35 -9z m85 -20 c12 -8 12 -10 -5 -9 -11 0 -29 4 -40 9 -18 8 -18 9 5 9 14 0 32 -4 40 -9z"/>
    <path d="M4530 5893 c-19 -2 -84 -10 -145 -17 -60 -8 -141 -18 -180 -21 -38 -3 -179 -33 -313 -66 -204 -51 -265 -70 -380 -122 -75 -34 -152 -72 -171 -84 -47 -32 -100 -90 -107 -118 -15 -59 91 -159 212 -200 25 -8 60 -23 77 -32 66 -34 336 -116 427 -129 541 -81 884 -114 1173 -114 160 0 647 32 767 50 36 5 135 21 220 34 85 13 189 29 230 35 84 11 291 75 414 127 97 41 186 86 186 94 0 3 13 13 29 23 43 25 64 77 51 124 -13 49 -40 80 -83 98 -20 8 -56 28 -80 45 -25 16 -47 30 -51 30 -3 0 -33 13 -68 30 -98 46 -278 100 -478 144 -77 16 -414 61 -553 72 l-78 7 6 -29 c4 -16 11 -45 16 -64 17 -67 14 -75 -41 -89 -28 -7 -79 -17 -113 -21 -34 -5 -87 -13 -117 -19 -30 -6 -93 -17 -140 -26 -240 -44 -382 -49 -416 -13 -12 13 -54 143 -54 169 0 8 -5 31 -11 52 l-10 37 -92 -2 c-51 0 -108 -3 -127 -5z"/>
    <path d="M6555 4753 c-11 -27 -19 -258 -20 -538 l0 -250 30 0 30 0 3 389 c2 379 0 416 -28 416 -4 0 -11 -8 -15 -17z"/>
    <path d="M3696 4658 c8 -38 40 -78 64 -78 9 0 21 -5 28 -12 7 -7 12 -9 12 -5 0 3 19 -2 43 -12 46 -19 137 -43 237 -62 36 -6 70 -16 76 -20 5 -5 30 -10 55 -13 24 -2 55 -7 69 -10 51 -13 257 -36 322 -36 37 0 79 -5 95 -11 43 -17 560 -24 650 -9 123 21 79 30 -162 32 -50 0 -239 20 -249 25 -6 4 -28 8 -51 9 -78 5 -238 25 -249 32 -5 3 -30 7 -55 9 -25 2 -68 8 -96 13 -27 5 -78 12 -113 16 -34 4 -65 11 -68 15 -3 5 -15 9 -27 9 -13 0 -50 7 -82 16 -33 8 -73 17 -89 20 -16 2 -50 10 -75 18 -25 8 -64 18 -86 22 -22 4 -44 8 -50 10 -24 5 -172 45 -187 50 -15 4 -17 0 -12 -28z"/>
    <path d="M 1849.79 5225.855 C 1847.642 5222.948 1836.901 5218.101 1825.443 5215.194 C 1796.799 5208.41 1718.026 5111.493 1700.839 5061.097 C 1692.962 5037.837 1680.788 4996.163 1673.627 4968.057 C 1649.995 4868.233 1673.627 4660.832 1720.89 4560.039 C 1725.188 4552.286 1730.916 4535.81 1734.496 4524.18 C 1738.794 4513.519 1745.238 4500.919 1749.535 4497.043 C 1753.831 4494.136 1764.573 4470.876 1773.883 4445.678 C 1817.566 4330.347 2021.658 4071.579 2124.062 4000.83 C 2143.397 3988.232 2172.041 3964.002 2187.796 3948.496 C 2204.266 3932.989 2227.181 3916.514 2239.356 3911.668 C 2251.529 3906.822 2284.47 3891.316 2311.683 3876.778 C 2376.133 3843.826 2380.43 3842.857 2444.163 3834.134 C 2563.754 3818.628 2638.23 3837.043 2681.913 3893.253 C 2701.964 3919.421 2734.189 4007.615 2741.35 4056.073 C 2751.376 4127.791 2752.808 4239.246 2744.931 4294.487 C 2740.634 4325.501 2736.337 4356.514 2734.905 4363.299 C 2734.189 4370.082 2731.324 4378.805 2728.46 4381.712 C 2725.595 4385.59 2723.447 4396.25 2723.447 4404.972 C 2723.447 4463.122 2641.811 4658.893 2575.929 4760.656 C 2558.025 4787.793 2533.678 4828.497 2522.22 4849.819 C 2510.046 4871.14 2495.008 4890.524 2488.562 4893.431 C 2482.118 4897.308 2455.621 4925.414 2430.557 4958.365 C 2404.778 4990.348 2373.268 5023.299 2358.946 5031.053 C 2344.624 5038.806 2326.721 5053.344 2318.844 5064.005 C 2296.645 5092.111 2139.1 5191.934 2118.333 5190.964 C 2116.9 5190.964 2102.579 5197.749 2088.256 5206.472 C 2068.921 5217.133 2029.535 5222.948 1957.207 5226.824 C 1899.918 5228.762 1851.939 5228.762 1849.79 5225.855 Z" style=""/>
    <path d="M6274 4319 c7 -306 17 -425 40 -447 7 -8 32 -16 55 -19 46 -6 71 8 71 40 0 16 -3 18 -12 9 -7 -7 -20 -12 -30 -12 -39 0 -45 34 -57 330 -12 300 -24 382 -56 389 -18 3 -18 -8 -11 -290z"/>
    <path d="M5474 3443 c-10 -16 -52 -65 -93 -111 -147 -159 -179 -198 -220 -257 -22 -33 -54 -79 -71 -103 -16 -23 -30 -45 -30 -48 0 -3 -8 -18 -19 -32 -10 -15 -32 -61 -49 -102 -16 -41 -41 -102 -55 -135 -29 -69 -113 -354 -127 -435 -10 -51 -31 -188 -50 -320 -33 -223 21 -503 120 -623 43 -53 119 -118 150 -129 19 -7 74 -13 121 -13 83 0 89 2 140 36 30 20 66 43 82 53 15 9 27 21 27 27 0 6 15 28 33 49 17 21 50 82 72 136 l40 99 -1 185 c0 102 -6 219 -12 260 -24 148 -74 360 -98 418 -8 18 -14 46 -14 63 0 16 -6 45 -14 64 -8 19 -27 94 -43 167 -24 112 -28 156 -28 278 1 85 6 168 14 200 14 58 78 194 116 245 27 37 38 55 32 55 -3 0 -13 -12 -23 -27z"/>
    <path d="M 1997.538 4872.256 C 1993.538 4858.256 1978.538 4834.256 1963.538 4820.256 C 1949.538 4805.256 1924.538 4779.256 1909.538 4762.256 L 1881.538 4730.256 L 1994.538 4616.256 C 2057.538 4554.256 2115.538 4489.256 2124.538 4471.256 C 2133.538 4454.256 2149.538 4433.256 2159.538 4426.256 C 2169.538 4419.256 2186.538 4400.256 2196.538 4383.256 C 2211.538 4359.256 2300.538 4249.256 2321.538 4228.256 C 2342.538 4208.256 2471.538 4056.256 2492.538 4028.256 C 2507.538 4009.256 2535.538 3977.256 2555.538 3958.256 C 2575.538 3939.256 2599.538 3911.256 2607.538 3895.256 C 2615.538 3880.256 2642.538 3846.256 2666.538 3820.256 C 2690.538 3794.256 2734.538 3743.256 2763.538 3707.256 C 2792.538 3671.256 2854.538 3594.256 2901.538 3537.256 C 2948.538 3480.256 3017.538 3393.256 3055.538 3345.256 C 3093.538 3296.256 3141.538 3238.256 3162.538 3216.256 C 3183.538 3194.256 3208.538 3164.256 3217.538 3149.256 C 3227.538 3135.256 3261.538 3090.256 3293.538 3050.256 C 3325.538 3010.256 3356.538 2967.256 3360.538 2955.256 C 3375.538 2917.256 3427.538 2853.256 3471.538 2818.256 C 3518.538 2781.256 3516.538 2788.256 3457.538 2877.256 C 3437.538 2906.256 3418.538 2942.256 3414.538 2957.256 C 3411.538 2971.256 3402.538 2992.256 3395.538 3004.256 C 3373.538 3037.256 3359.538 3144.256 3356.538 3291.256 C 3354.538 3447.256 3356.538 3441.256 3252.538 3550.256 C 3222.538 3582.256 3190.538 3618.256 3182.538 3630.256 C 3173.538 3643.256 3111.538 3708.256 3043.538 3776.256 C 2976.538 3844.256 2918.538 3905.256 2914.538 3912.256 C 2909.538 3920.256 2845.538 3991.256 2771.538 4070.256 C 2697.538 4150.256 2602.538 4252.256 2561.538 4298.256 C 2520.538 4344.256 2469.538 4399.256 2447.538 4421.256 C 2426.538 4442.256 2393.538 4480.256 2373.538 4506.256 C 2354.538 4532.256 2288.538 4607.256 2227.538 4673.256 C 2166.538 4740.256 2096.538 4817.256 2072.538 4846.256 C 2022.538 4904.256 2006.538 4910.256 1997.538 4872.256 Z"/>
    <path d="M4388 2920 c-14 -64 -50 -200 -63 -241 -8 -26 -15 -55 -15 -65 0 -11 -7 -32 -15 -48 -8 -16 -22 -54 -31 -85 -9 -31 -31 -101 -49 -156 -18 -55 -44 -143 -59 -195 -15 -52 -31 -108 -36 -125 -16 -54 -40 -223 -40 -289 0 -171 81 -389 183 -494 62 -64 104 -87 175 -96 41 -5 62 -2 96 12 85 38 146 129 146 220 0 43 -32 169 -69 269 -33 91 -67 271 -106 563 -19 140 -28 203 -59 390 -13 80 -27 179 -30 220 -4 41 -10 91 -15 110 -7 33 -8 33 -13 10z"/>
    <path d="M 6828.664 2786.861 C 6837.664 2748.861 6853.664 2754.861 6903.664 2812.861 C 6927.664 2841.861 6997.664 2918.861 7058.664 2985.861 C 7119.664 3051.861 7185.664 3126.861 7204.664 3152.861 C 7224.664 3178.861 7257.664 3216.861 7278.664 3237.861 C 7300.664 3259.861 7351.664 3314.861 7392.664 3360.861 C 7433.664 3406.861 7528.664 3508.861 7602.664 3588.861 C 7676.664 3667.861 7740.664 3738.861 7745.664 3746.861 C 7749.664 3753.861 7807.664 3814.861 7874.664 3882.861 C 7942.664 3950.861 8004.664 4015.861 8013.664 4028.861 C 8021.664 4040.861 8053.664 4076.861 8083.664 4108.861 C 8187.664 4217.861 8185.664 4211.861 8187.664 4367.861 C 8190.664 4514.861 8204.664 4621.861 8226.664 4654.861 C 8233.664 4666.861 8242.664 4687.861 8245.664 4701.861 C 8249.664 4716.861 8268.664 4752.861 8288.664 4781.861 C 8347.664 4870.861 8349.664 4877.861 8302.664 4840.861 C 8258.664 4805.861 8206.664 4741.861 8191.664 4703.861 C 8187.664 4691.861 8156.664 4648.861 8124.664 4608.861 C 8092.664 4568.861 8058.664 4523.861 8048.664 4509.861 C 8039.664 4494.861 8014.664 4464.861 7993.664 4442.861 C 7972.664 4420.861 7924.664 4362.861 7886.664 4313.861 C 7848.664 4265.861 7779.664 4178.861 7732.664 4121.861 C 7685.664 4064.861 7623.664 3987.861 7594.664 3951.861 C 7565.664 3915.861 7521.664 3864.861 7497.664 3838.861 C 7473.664 3812.861 7446.664 3778.861 7438.664 3763.861 C 7430.664 3747.861 7406.664 3719.861 7386.664 3700.861 C 7366.664 3681.861 7338.664 3649.861 7323.664 3630.861 C 7302.664 3602.861 7173.664 3450.861 7152.664 3430.861 C 7131.664 3409.861 7042.664 3299.861 7027.664 3275.861 C 7017.664 3258.861 7000.664 3239.861 6990.664 3232.861 C 6980.664 3225.861 6964.664 3204.861 6955.664 3187.861 C 6946.664 3169.861 6888.664 3104.861 6825.664 3042.861 L 6712.664 2928.861 L 6740.664 2896.861 C 6755.664 2879.861 6780.664 2853.861 6794.664 2838.861 C 6809.664 2824.861 6824.664 2800.861 6828.664 2786.861 Z" transform="matrix(-1, 0, 0, -1, 15048.304636, 7624.79965)"/>
    <path d="M 7641.661 3842.249 C 7639.513 3845.156 7628.772 3850.003 7617.314 3852.91 C 7588.67 3859.694 7509.897 3956.611 7492.71 4007.007 C 7484.833 4030.267 7472.659 4071.941 7465.498 4100.047 C 7441.866 4199.871 7465.498 4407.272 7512.761 4508.065 C 7517.059 4515.818 7522.787 4532.294 7526.367 4543.924 C 7530.665 4554.585 7537.109 4567.185 7541.406 4571.061 C 7545.702 4573.968 7556.444 4597.228 7565.754 4622.426 C 7609.437 4737.757 7813.529 4996.525 7915.933 5067.274 C 7935.268 5079.872 7963.912 5104.102 7979.667 5119.608 C 7996.137 5135.115 8019.052 5151.59 8031.227 5156.436 C 8043.4 5161.282 8076.341 5176.788 8103.554 5191.326 C 8168.004 5224.278 8172.301 5225.247 8236.034 5233.97 C 8355.625 5249.476 8430.101 5231.061 8473.784 5174.851 C 8493.835 5148.683 8526.06 5060.489 8533.221 5012.031 C 8543.247 4940.313 8544.679 4828.858 8536.802 4773.617 C 8532.505 4742.603 8528.208 4711.59 8526.776 4704.805 C 8526.06 4698.022 8523.195 4689.299 8520.331 4686.392 C 8517.466 4682.514 8515.318 4671.854 8515.318 4663.132 C 8515.318 4604.982 8433.682 4409.211 8367.8 4307.448 C 8349.896 4280.311 8325.549 4239.607 8314.091 4218.285 C 8301.917 4196.964 8286.879 4177.58 8280.433 4174.673 C 8273.989 4170.796 8247.492 4142.69 8222.428 4109.739 C 8196.649 4077.756 8165.139 4044.805 8150.817 4037.051 C 8136.495 4029.298 8118.592 4014.76 8110.715 4004.099 C 8088.516 3975.993 7930.971 3876.17 7910.204 3877.14 C 7908.771 3877.14 7894.45 3870.355 7880.127 3861.632 C 7860.792 3850.971 7821.406 3845.156 7749.078 3841.28 C 7691.789 3839.342 7643.81 3839.342 7641.661 3842.249 Z" style="" transform="matrix(-1, 0, 0, -1, 15998.08429, 9079.170125)"/>
  </g>
</svg>